<svg xmlns="http://www.w3.org/2000/svg" xmlns:svg="http://www.w3.org/2000/svg" id="svg4667" width="59cm" height="28cm" version="1.1" viewBox="189 45 1172 554"><metadata id="metadata4673"/><rect style="fill:none;fill-opacity:0;stroke-width:2;stroke:#000" id="rect4611" width="1169.74" height="551.154" x="190.826" y="46.396"/><g id="g4625"><polyline style="fill:none;fill-opacity:0;stroke-width:4;stroke:#000" id="polyline4619" points="1163.23 342.926 879.414 169.886"/><polygon style="fill:#000" id="polygon4621" points="870.448 164.42 886.046 165.731 879.414 169.886 878.758 177.685"/><polygon style="fill:none;fill-opacity:0;stroke-width:4;stroke:#000" id="polygon4623" points="870.448 164.42 886.046 165.731 879.414 169.886 878.758 177.685"/></g><g id="g4633" transform="translate(-2.041812)"><polyline style="fill:none;fill-opacity:0;stroke:#000;stroke-width:4" id="polyline4627" points="348.599 334.674 647.41 162.092"/><polygon style="fill:#000" id="polygon4629" points="348.129 326.862 348.599 334.674 355.131 338.985 339.507 339.925"/><polygon style="fill:none;fill-opacity:0;stroke:#000;stroke-width:4" id="polygon4631" points="348.129 326.862 348.599 334.674 355.131 338.985 339.507 339.925"/></g><g id="g4641" transform="translate(-1.4192872,9.2789243)"><rect style="fill:#ff0" id="rect4635" width="190.55" height="39.4" x="660.308" y="277.256"/><text style="font-style:normal;font-weight:400;font-size:33.86669922px;font-family:sans-serif;text-anchor:start;fill:#000" id="text4639" x="660.308" y="308.656" font-size="33.867"><tspan id="tspan4637" x="660.308" y="308.656">Crossbar.io</tspan></text></g><text style="fill:#000;text-anchor:start;font-family:sans-serif;font-style:normal;font-weight:400" id="text4647" x="1044.29" y="532.102" font-size="33.867"><tspan id="tspan4643" x="1044.29" y="532.102">Autobahn Python </tspan> <tspan id="tspan4645" x="1044.29" y="574.435">Publishing client</tspan></text><text style="font-style:normal;font-weight:400;font-size:19.75559998px;font-family:sans-serif;text-anchor:start;fill:#000" id="text4659" x="993.392" y="187.614" font-size="19.756"><tspan id="tspan4655" x="993.392" y="187.614">Publish Hello World to</tspan> <tspan id="tspan4657" x="993.392" y="212.308">topic &quot;com.myapp.hello&quot;</tspan></text><text style="font-style:normal;font-weight:400;font-size:19.75559998px;font-family:sans-serif;text-anchor:start;fill:#000" id="text4665" x="278.582" y="190.158" font-size="19.756"><tspan id="tspan4661" x="278.582" y="190.158">Subscribe and receive from</tspan> <tspan id="tspan4663" x="278.582" y="214.853">topic &quot;com.myapp.hello&quot;</tspan></text><g id="g4583" transform="matrix(1.5153552,0,0,1.5210157,-42.813798,-380.405)" style="fill-rule:evenodd;stroke-width:2.29159999"><path id="path4575" d="M 453.35,287.7 V 436.41 H 601.87 V 287.7 Z" style="fill:#ff0"/><path id="path4577" d="m 453.35,319.37 v 14.674 h 35.074 l 23.262,23.262 10.737,-10.737 -27.557,-27.557 -41.515,0.35789 z" style="fill:#333"/><path id="path4579" d="m 543.36,367.68 -10.558,10.737 26.484,26.663 h 42.59 v -14.852 h -35.967 l -22.547,-22.547 z" style="fill:#333"/><path id="path4581" d="m 560.37,319.01 -70.697,71.22 h -36.32 v 15.032 h 42.411 l 71.22,-71.22 h 34.895 v -15.031 h -41.515 z" style="fill:#333"/></g><path style="fill:#0273a0;fill-rule:nonzero;stroke-width:1.01978922" id="path4500" d="M 262.626,342.38739 V 499.41496 H 413.14297 V 342.38739 Z m 63.97571,15.09085 h 6.67457 v 30.73751 h -13.01557 z m 16.11881,0.27817 h 6.64122 l 6.37425,30.66792 h -13.01557 z m -51.6949,32.5462 h 93.24424 v 5.73728 h -4.53874 v 8.83195 h -10.71319 v -8.83195 h -62.64131 v 8.83195 h -10.51297 v -8.83195 h -4.83905 z m 25.16323,13.66551 h 17.08682 v 79.06958 h -32.97238 z m 26.53167,0 h 17.05379 l 15.9186,79.06958 h -32.97239 z"/><path style="fill:#0273a0;fill-rule:nonzero;stroke-width:1.01978922" id="path4500-0" d="M 1085.2763,341.85324 V 498.8808 h 150.517 V 341.85324 Z m 63.9757,15.09085 h 6.6746 v 30.73751 h -13.0156 z m 16.1189,0.27817 h 6.6412 l 6.3742,30.66792 h -13.0155 z m -51.6949,32.5462 h 93.2442 v 5.73728 h -4.5387 v 8.83195 h -10.7132 v -8.83195 h -62.6413 v 8.83195 h -10.513 v -8.83195 h -4.8391 z m 25.1632,13.6655 h 17.0868 v 79.06958 h -32.9724 z m 26.5317,0 h 17.0537 l 15.9186,79.06958 h -32.9723 z"/><text style="font-style:normal;font-weight:400;font-size:21.02316475px;line-height:1.25;font-family:sans-serif;letter-spacing:0;word-spacing:0;fill:#000;fill-opacity:1;stroke:none;stroke-width:.52557909" id="text242" x="204.142" y="539.277" xml:space="preserve"><tspan id="tspan240" x="204.142" y="539.277" style="font-size:33.86131668px;stroke-width:.52557909">Autobahn Javascript</tspan><tspan style="font-size:33.86131668px;stroke-width:.52557909" id="tspan244" x="204.142" y="581.603">Subscribing client</tspan></text></svg>