<svg xmlns="http://www.w3.org/2000/svg" xmlns:svg="http://www.w3.org/2000/svg" id="svg58" width="59cm" height="30cm" version="1.1" viewBox="132 371 1172 584"><metadata id="metadata64"/><rect id="rect2" width="1169.74" height="581.603" x="133.1" y="372.511" style="fill:none;fill-opacity:0;stroke-width:2;stroke:#000"/><g id="g16"><polyline id="polyline10" points="1105.5 699.49 829.372 531.135" style="fill:none;fill-opacity:0;stroke-width:4;stroke:#000"/><polygon id="polygon12" points="812.722 520.984 841.689 523.419 829.372 531.135 828.154 545.618" style="fill:#000"/><polygon id="polygon14" points="812.722 520.984 841.689 523.419 829.372 531.135 828.154 545.618" style="fill:none;fill-opacity:0;stroke-width:4;stroke:#000"/></g><g id="g24"><polyline id="polyline18" points="298.667 686.737 589.684 518.656" style="fill:none;fill-opacity:0;stroke-width:4;stroke:#000"/><polygon id="polygon20" points="281.781 696.489 297.793 672.228 298.667 686.737 310.797 694.743" style="fill:#000"/><polygon id="polygon22" points="281.781 696.489 297.793 672.228 298.667 686.737 310.797 694.743" style="fill:none;fill-opacity:0;stroke-width:4;stroke:#000"/></g><g id="g32"><rect id="rect26" width="190.55" height="39.4" x="602.582" y="633.82" style="fill:#ff0"/><text id="text30" x="602.582" y="665.22" font-size="33.867" style="fill:#000;text-anchor:start;font-family:sans-serif;font-style:normal;font-weight:400"><tspan id="tspan28" x="602.582" y="665.22">Crossbar.io</tspan></text></g><text id="text38" x="935.666" y="544.178" font-size="19.756" style="fill:#000;text-anchor:start;font-family:sans-serif;font-style:normal;font-weight:400"><tspan id="tspan34" x="935.666" y="544.178">Publish Hello World to </tspan> <tspan id="tspan36" x="935.666" y="568.872"> topic &quot;com.myapp.hello&quot;</tspan></text><text id="text44" x="220.856" y="546.722" font-size="19.756" style="fill:#000;text-anchor:start;font-family:sans-serif;font-style:normal;font-weight:400"><tspan id="tspan40" x="220.856" y="546.722">Subscribe and receive from </tspan> <tspan id="tspan42" x="220.856" y="571.417"> topic &quot;com.myapp.hello&quot;</tspan></text><text id="text50" x="152.386" y="885.211" font-size="33.867" style="font-style:normal;font-weight:400;font-size:33.86669922px;font-family:sans-serif;text-anchor:start;fill:#000"><tspan id="tspan46" x="152.386" y="885.211">Autobahn Javascript</tspan> <tspan id="tspan48" x="152.386" y="927.544">Subscribing client</tspan></text><text id="text56" x="941.469" y="894.14" font-size="33.867" style="font-style:normal;font-weight:400;font-size:33.86669922px;font-family:sans-serif;text-anchor:start;fill:#000"><tspan id="tspan52" x="941.469" y="894.14">Autobahn Javascript</tspan> <tspan id="tspan54" x="941.469" y="936.473">Publishing client</tspan></text><g style="fill-rule:evenodd;stroke-width:2.29159999" id="g4583" transform="matrix(1.5153552,0,0,1.5210157,-101.63365,-30.530143)"><path style="fill:#ff0" id="path4575" d="M 453.35,287.7 V 436.41 H 601.87 V 287.7 Z"/><path style="fill:#333" id="path4577" d="m 453.35,319.37 v 14.674 h 35.074 l 23.262,23.262 10.737,-10.737 -27.557,-27.557 -41.515,0.35789 z"/><path style="fill:#333" id="path4579" d="m 543.36,367.68 -10.558,10.737 26.484,26.663 h 42.59 v -14.852 h -35.967 l -22.547,-22.547 z"/><path style="fill:#333" id="path4581" d="m 560.37,319.01 -70.697,71.22 h -36.32 v 15.032 h 42.411 l 71.22,-71.22 h 34.895 v -15.031 h -41.515 z"/></g><path id="path4500" d="M 205.79379,693.91752 V 850.94509 H 356.31076 V 693.91752 Z m 63.97571,15.09085 h 6.67457 v 30.73751 H 263.4285 Z m 16.11881,0.27817 h 6.64122 l 6.37425,30.66792 h -13.01557 z m -51.6949,32.5462 h 93.24424 v 5.73728 h -4.53874 v 8.83195 h -10.71319 v -8.83195 h -62.64131 v 8.83195 h -10.51297 v -8.83195 h -4.83905 z m 25.16323,13.66551 h 17.08682 v 79.06958 h -32.97238 z m 26.53167,0 h 17.05379 l 15.9186,79.06958 h -32.97239 z" style="fill:#0273a0;fill-rule:nonzero;stroke-width:1.01978922"/><path id="path4500-2" d="m 1035.6995,699.55889 v 157.02757 h 150.517 V 699.55889 Z m 63.9757,15.09085 h 6.6746 v 30.73751 h -13.0156 z m 16.1188,0.27817 h 6.6412 l 6.3743,30.66792 h -13.0156 z m -51.6949,32.5462 h 93.2442 v 5.73728 h -4.5387 v 8.83195 h -10.7132 v -8.83195 h -62.6413 v 8.83195 h -10.513 v -8.83195 h -4.839 z m 25.1632,13.66551 h 17.0869 v 79.06958 h -32.9724 z m 26.5317,0 h 17.0538 l 15.9186,79.06958 h -32.9724 z" style="fill:#0273a0;fill-rule:nonzero;stroke-width:1.01978922"/></svg>