<svg xmlns="http://www.w3.org/2000/svg" xmlns:svg="http://www.w3.org/2000/svg" id="svg66" width="59cm" height="28cm" version="1.1" viewBox="47 36 1172 554"><metadata id="metadata72"/><rect style="fill:none;fill-opacity:0;stroke-width:2;stroke:#000" id="rect2" width="1169.74" height="551.154" x="48.5" y="37.3"/><g id="g20"><polyline style="fill:none;fill-opacity:0;stroke-width:4;stroke:#000" id="polyline10" points="1010.68 327.598 737.087 160.79"/><polygon style="fill:#000" id="polygon12" points="1017.09 331.502 1005.94 330.566 1010.68 327.598 1011.15 322.028"/><polygon style="fill:none;fill-opacity:0;stroke-width:4;stroke:#000" id="polygon14" points="1017.09 331.502 1005.94 330.566 1010.68 327.598 1011.15 322.028"/><polygon style="fill:#000" id="polygon16" points="728.122 155.324 743.72 156.635 737.087 160.79 736.432 168.589"/><polygon style="fill:none;fill-opacity:0;stroke-width:4;stroke:#000" id="polygon18" points="728.122 155.324 743.72 156.635 737.087 160.79 736.432 168.589"/></g><g id="g32"><polyline style="fill:none;fill-opacity:0;stroke-width:4;stroke:#000" id="polyline22" points="206.273 325.578 494.717 158.984"/><polygon style="fill:#000" id="polygon24" points="197.181 330.83 205.803 317.766 206.273 325.578 212.805 329.889"/><polygon style="fill:none;fill-opacity:0;stroke-width:4;stroke:#000" id="polygon26" points="197.181 330.83 205.803 317.766 206.273 325.578 212.805 329.889"/><polygon style="fill:#000" id="polygon28" points="501.211 155.233 495.053 164.564 494.717 158.984 490.051 155.905"/><polygon style="fill:none;fill-opacity:0;stroke-width:4;stroke:#000" id="polygon30" points="501.211 155.233 495.053 164.564 494.717 158.984 490.051 155.905"/></g><g id="g40" transform="translate(0,3.1534746)"><rect style="fill:#ff0" id="rect34" width="190.55" height="39.4" x="517.982" y="268.161"/><text style="font-style:normal;font-weight:400;font-size:33.86669922px;font-family:sans-serif;text-anchor:start;fill:#000" id="text38" x="517.982" y="299.561" font-size="33.867"><tspan id="tspan36" x="517.982" y="299.561">Crossbar.io</tspan></text></g><text style="font-style:normal;font-weight:400;font-size:33.86669922px;font-family:sans-serif;text-anchor:start;fill:#000" id="text52" x="901.962" y="523.006" font-size="33.867"><tspan id="tspan48" x="901.962" y="523.006">Autobahn Python</tspan> <tspan id="tspan50" x="901.962" y="565.34">Caller: RPC Date()</tspan></text><text style="fill:#000;text-anchor:start;font-family:sans-serif;font-style:normal;font-weight:400" id="text58" x="836.066" y="183.518" font-size="19.756"><tspan id="tspan54" x="836.066" y="183.518">Request the function Date using </tspan> <tspan id="tspan56" x="836.066" y="208.212">the topic &quot;com.myapp.date&quot;</tspan></text><text style="fill:#000;text-anchor:start;font-family:sans-serif;font-style:normal;font-weight:400" id="text64" x="58.257" y="151.063" font-size="19.756"><tspan id="tspan60" x="58.257" y="151.063">1. Register Date() on topic &quot;com.myapp.date&quot;</tspan> <tspan id="tspan62" x="58.257" y="175.757">2. Respond to the call and send output</tspan></text><g id="g4583" transform="matrix(1.5153552,0,0,1.5210157,-184.77169,-394.57429)" style="fill-rule:evenodd;stroke-width:2.29159999"><path id="path4575" d="M 453.35,287.7 V 436.41 H 601.87 V 287.7 Z" style="fill:#ff0"/><path id="path4577" d="m 453.35,319.37 v 14.674 h 35.074 l 23.262,23.262 10.737,-10.737 -27.557,-27.557 -41.515,0.35789 z" style="fill:#333"/><path id="path4579" d="m 543.36,367.68 -10.558,10.737 26.484,26.663 h 42.59 v -14.852 h -35.967 l -22.547,-22.547 z" style="fill:#333"/><path id="path4581" d="m 560.37,319.01 -70.697,71.22 h -36.32 v 15.032 h 42.411 l 71.22,-71.22 h 34.895 v -15.031 h -41.515 z" style="fill:#333"/></g><path style="fill:#0273a0;fill-rule:nonzero;stroke-width:1.01978922" id="path4500" d="M 120.31154,335.24397 V 492.27154 H 270.82851 V 335.24397 Z m 63.97571,15.09085 h 6.67457 v 30.73751 h -13.01557 z m 16.11881,0.27817 h 6.64122 l 6.37425,30.66792 h -13.01557 z m -51.6949,32.5462 h 93.24424 v 5.73728 h -4.53874 v 8.83195 h -10.71319 v -8.83195 h -62.64131 v 8.83195 h -10.51297 v -8.83195 h -4.83905 z m 25.16323,13.66551 h 17.08682 v 79.06958 h -32.97238 z m 26.53167,0 h 17.05379 l 15.9186,79.06958 h -32.97239 z"/><path style="fill:#0273a0;fill-rule:nonzero;stroke-width:1.01978922" id="path4500-8" d="M 950.62373,334.5729 V 491.60047 H 1101.1407 V 334.5729 Z m 63.97567,15.09085 h 6.6746 v 30.73751 h -13.0156 z m 16.1189,0.27817 h 6.6412 l 6.3742,30.66792 h -13.0155 z m -51.69495,32.5462 h 93.24425 v 5.73728 h -4.5387 v 8.83195 h -10.7132 v -8.83195 h -62.64135 v 8.83195 h -10.51297 v -8.83195 h -4.83905 z m 25.16325,13.66551 h 17.0868 v 79.06958 h -32.97238 z m 26.5317,0 h 17.0537 l 15.9186,79.06958 h -32.9723 z"/><text style="font-style:normal;font-weight:400;font-size:21.02316475px;line-height:1.25;font-family:sans-serif;letter-spacing:0;word-spacing:0;fill:#000;fill-opacity:1;stroke:none;stroke-width:.52557909" id="text181" x="75.344" y="525.866" xml:space="preserve"><tspan id="tspan179" x="75.344" y="525.866" style="font-size:33.86131287px;stroke-width:.52557909">Autobahn Javascript</tspan><tspan style="font-size:33.86131287px;stroke-width:.52557909" id="tspan183" x="75.344" y="568.192">Callee: RPC Date()</tspan></text></svg>