<svg xmlns="http://www.w3.org/2000/svg" xmlns:svg="http://www.w3.org/2000/svg" id="svg5236" width="59cm" height="45cm" version="1.1" viewBox="189 -296 1172 895"><metadata id="metadata5242"/><rect style="fill:none;fill-opacity:0;stroke-width:2;stroke:#000" id="rect5148" width="1169.74" height="892.314" x="190.826" y="-294.764"/><g id="g5162"><polyline style="fill:none;fill-opacity:0;stroke-width:4;stroke:#000" id="polyline5156" points="1163.23 342.926 887.098 174.571"/><polygon style="fill:#000" id="polygon5158" points="870.448 164.42 899.415 166.855 887.098 174.571 885.88 189.054"/><polygon style="fill:none;fill-opacity:0;stroke-width:4;stroke:#000" id="polygon5160" points="870.448 164.42 899.415 166.855 887.098 174.571 885.88 189.054"/></g><g id="g5170"><polyline style="fill:none;fill-opacity:0;stroke-width:4;stroke:#000" id="polyline5164" points="356.393 330.173 647.41 162.092"/><polygon style="fill:#000" id="polygon5166" points="339.507 339.925 355.519 315.664 356.393 330.173 368.523 338.179"/><polygon style="fill:none;fill-opacity:0;stroke-width:4;stroke:#000" id="polygon5168" points="339.507 339.925 355.519 315.664 356.393 330.173 368.523 338.179"/></g><g id="g5178"><rect style="fill:#ff0" id="rect5172" width="190.55" height="39.4" x="660.308" y="277.256"/><text style="fill:#000;text-anchor:start;font-family:sans-serif;font-style:normal;font-weight:400" id="text5176" x="660.308" y="308.656" font-size="33.867"><tspan id="tspan5174" x="660.308" y="308.656">Crossbar.io</tspan></text></g><text style="fill:#000;text-anchor:start;font-family:sans-serif;font-style:normal;font-weight:400" id="text5184" x="1044.29" y="532.102" font-size="33.867"><tspan id="tspan5180" x="1044.29" y="532.102">Autobahn Python </tspan> <tspan id="tspan5182" x="1044.29" y="574.435">Publishing client</tspan></text><text style="fill:#000;text-anchor:start;font-family:sans-serif;font-style:normal;font-weight:400" id="text5190" x="210.33" y="531.338" font-size="33.867"><tspan id="tspan5186" x="210.33" y="531.338">Autobahn Python </tspan> <tspan id="tspan5188" x="210.33" y="573.671">Subscribing client</tspan></text><text style="font-style:normal;font-weight:400;font-size:19.75559998px;font-family:sans-serif;text-anchor:start;fill:#000" id="text5196" x="993.392" y="187.614" font-size="19.756"><tspan id="tspan5192" x="993.392" y="187.614">Publish Hello World to</tspan> <tspan id="tspan5194" x="993.392" y="212.308">topic &quot;com.myapp.hello&quot;</tspan></text><text style="font-style:normal;font-weight:400;font-size:19.75559998px;font-family:sans-serif;text-anchor:start;fill:#000" id="text5202" x="278.582" y="172.158" font-size="19.756"><tspan id="tspan5198" x="278.582" y="172.158">Subscribe and receive from</tspan> <tspan id="tspan5200" x="278.582" y="196.853">topic &quot;com.myapp.hello&quot;</tspan></text><text style="fill:#000;text-anchor:start;font-family:sans-serif;font-style:normal;font-weight:400" id="text5212" x="220.676" y="-234.618" font-size="33.867"><tspan id="tspan5208" x="220.676" y="-234.618">Autobahn Javascript</tspan> <tspan id="tspan5210" x="220.676" y="-192.285">Subscribing client</tspan></text><text style="fill:#000;text-anchor:start;font-family:sans-serif;font-style:normal;font-weight:400" id="text5218" x="990.575" y="-221.532" font-size="33.867"><tspan id="tspan5214" x="990.575" y="-221.532">Autobahn Javascript</tspan> <tspan id="tspan5216" x="990.575" y="-179.199"> Publishing client</tspan></text><g id="g5226"><polyline style="fill:none;fill-opacity:0;stroke-width:4;stroke:#000" id="polyline5220" points="358.511 -4.349 647.41 162.092"/><polygon style="fill:#000" id="polygon5222" points="341.615 -14.083 370.633 -12.368 358.511 -4.349 357.654 10.161"/><polygon style="fill:none;fill-opacity:0;stroke-width:4;stroke:#000" id="polygon5224" points="341.615 -14.083 370.633 -12.368 358.511 -4.349 357.654 10.161"/></g><g id="g5234"><polyline style="fill:none;fill-opacity:0;stroke-width:4;stroke:#000" id="polyline5228" points="887.162 149.718 1161.95 -15.879"/><polygon style="fill:#000" id="polygon5230" points="870.46 159.783 886.019 135.229 887.162 149.718 899.439 157.498"/><polygon style="fill:none;fill-opacity:0;stroke-width:4;stroke:#000" id="polygon5232" points="870.46 159.783 886.019 135.229 887.162 149.718 899.439 157.498"/></g><path style="fill:#0273a0;fill-rule:nonzero;stroke-width:1.02104604" id="path4500-0" d="m 1087.7779,-173.31872 v 157.221096 h 150.7025 V -173.31872 Z m 64.0545,15.10945 h 6.6829 v 30.7754 h -13.0317 z m 16.1388,0.27851 h 6.6494 l 6.382,30.70573 h -13.0315 z m -51.7586,32.58632 h 93.3591 v 5.74435 h -4.5443 v 8.84284 h -10.7264 v -8.84284 h -62.7185 v 8.84284 h -10.5259 v -8.84284 h -4.8451 z m 25.1942,13.68234 h 17.1079 v 79.167036 h -33.0131 z m 26.5644,0 h 17.0747 l 15.9382,79.167036 h -33.0129 z"/><path style="fill:#0273a0;fill-rule:nonzero;stroke-width:1.02104604" id="path4500-0-9" d="m 272.62911,-171.65515 v 157.221096 h 150.7025 V -171.65515 Z m 64.0545,15.10945 h 6.6829 v 30.7754 h -13.0317 z m 16.1388,0.27851 h 6.6494 l 6.382,30.70573 h -13.0315 z m -51.7586,32.58632 h 93.3591 v 5.74435 h -4.5443 v 8.84284 h -10.7264 v -8.84284 h -62.7185 v 8.84284 h -10.5259 v -8.84284 h -4.8451 z m 25.1942,13.68234 h 17.1079 v 79.167036 h -33.0131 z m 26.5644,0 h 17.0747 l 15.9382,79.167036 h -33.0129 z"/><path style="fill:#0273a0;fill-rule:nonzero;stroke-width:1.02104604" id="path4500-0-0" d="m 251.00275,344.05118 v 157.2211 h 150.7025 v -157.2211 z m 64.0545,15.10945 h 6.6829 v 30.7754 h -13.0317 z m 16.1388,0.27851 h 6.64941 l 6.38199,30.70573 h -13.0315 z m -51.7586,32.58632 h 93.35911 v 5.74435 h -4.54431 v 8.84284 h -10.7264 v -8.84284 h -62.7185 v 8.84284 h -10.5259 v -8.84284 h -4.8451 z m 25.1942,13.68234 h 17.1079 v 79.16704 h -33.0131 z m 26.5644,0 h 17.0747 l 15.9382,79.16704 h -33.0129 z"/><path style="fill:#0273a0;fill-rule:nonzero;stroke-width:1.02104604" id="path4500-0-2" d="m 1092.4926,337.2886 v 157.2211 h 150.7025 V 337.2886 Z m 64.0545,15.10945 h 6.6829 v 30.7754 h -13.0317 z m 16.1388,0.27851 h 6.6494 l 6.382,30.70573 h -13.0315 z m -51.7586,32.58632 h 93.3591 v 5.74435 h -4.5443 v 8.84284 h -10.7264 v -8.84284 h -62.7185 v 8.84284 h -10.5259 v -8.84284 h -4.8451 z m 25.1942,13.68234 h 17.1079 v 79.16704 h -33.0131 z m 26.5644,0 h 17.0747 l 15.9382,79.16704 h -33.0129 z"/><g id="g4583" transform="matrix(1.5172228,0,0,1.5228902,-44.953992,-398.20643)" style="fill-rule:evenodd;stroke-width:2.29159999"><path id="path4575" d="M 453.35,287.7 V 436.41 H 601.87 V 287.7 Z" style="fill:#ff0"/><path id="path4577" d="m 453.35,319.37 v 14.674 h 35.074 l 23.262,23.262 10.737,-10.737 -27.557,-27.557 -41.515,0.35789 z" style="fill:#333"/><path id="path4579" d="m 543.36,367.68 -10.558,10.737 26.484,26.663 h 42.59 v -14.852 h -35.967 l -22.547,-22.547 z" style="fill:#333"/><path id="path4581" d="m 560.37,319.01 -70.697,71.22 h -36.32 v 15.032 h 42.411 l 71.22,-71.22 h 34.895 v -15.031 h -41.515 z" style="fill:#333"/></g></svg>